<svg width="449" height="395" viewBox="0 0 449 395" fill="none" xmlns="http://www.w3.org/2000/svg">
<path fill-rule="evenodd" clip-rule="evenodd" d="M55.3426 276.329C40.4178 237.663 11.534 128.209 125.316 126.03C239.098 123.852 225.451 33.1649 303.026 53.7905C380.602 74.4155 440.772 158.708 415.95 218.265C391.127 277.821 306.903 251.598 267.069 309.58C227.235 367.562 81.5926 344.341 55.3426 276.329Z" fill="#FAFAFA"/>
<path fill-rule="evenodd" clip-rule="evenodd" d="M147.35 276.771C147.35 276.771 140.538 288.493 143.221 288.916C145.902 289.338 151.512 279.205 151.512 279.205L166.896 275.129L155.31 273.933L147.35 276.771Z" fill="#FFFFFE"/>
<path fill-rule="evenodd" clip-rule="evenodd" d="M147.35 276.771L146.787 276.445C146.783 276.453 145.589 278.507 144.389 280.943C143.789 282.161 143.188 283.474 142.73 284.685C142.276 285.902 141.952 286.992 141.946 287.892C141.947 288.249 141.995 288.594 142.18 288.92C142.359 289.25 142.733 289.507 143.12 289.557L143.388 289.578C143.926 289.573 144.407 289.356 144.877 289.055C145.695 288.52 146.512 287.669 147.326 286.684C149.752 283.733 152.069 279.537 152.081 279.52L151.512 279.205L151.678 279.834L167.063 275.756C167.366 275.675 167.569 275.39 167.544 275.078C167.52 274.765 167.276 274.515 166.964 274.482L155.376 273.286L155.092 273.321L147.131 276.16C146.987 276.211 146.865 276.313 146.787 276.445L147.35 276.771L147.568 277.383L155.389 274.594L163.301 275.409L151.346 278.578C151.176 278.624 151.029 278.738 150.945 278.891C150.945 278.891 150.863 279.038 150.712 279.3C150.186 280.22 148.821 282.532 147.308 284.59C146.552 285.618 145.758 286.583 145.036 287.264C144.676 287.606 144.333 287.875 144.043 288.045C143.751 288.219 143.517 288.282 143.388 288.28L143.321 288.275H143.322L143.299 288.269L143.288 288.295L143.308 288.276L143.299 288.269L143.288 288.295L143.308 288.276L143.303 288.268C143.284 288.242 143.242 288.111 143.244 287.892C143.238 287.323 143.508 286.287 143.945 285.144C144.596 283.419 145.59 281.396 146.42 279.817C146.834 279.026 147.208 278.345 147.477 277.862C147.747 277.379 147.91 277.098 147.91 277.097L147.35 276.771L147.568 277.383L147.35 276.771Z" fill="#1A282B"/>
<path fill-rule="evenodd" clip-rule="evenodd" d="M143.396 288.28C143.393 288.28 143.391 288.28 143.388 288.28L143.321 288.275H143.322L143.304 288.271L143.303 288.268C143.286 288.242 143.244 288.116 143.244 287.907C143.244 287.902 143.244 287.897 143.244 287.892C143.244 287.885 143.244 287.879 143.244 287.872C143.243 287.298 143.513 286.274 143.945 285.144C144.026 284.929 144.113 284.708 144.204 284.485C144.528 284.05 144.846 283.616 145.154 283.191C145.956 282.088 146.695 281.048 147.333 280.212C147.964 279.379 148.518 278.742 148.841 278.502C149.069 278.321 149.576 278.095 150.25 277.911C151.859 277.463 154.387 277.187 156.957 277.09L151.346 278.578C151.176 278.624 151.029 278.738 150.945 278.891C150.945 278.891 150.863 279.038 150.712 279.3C150.186 280.22 148.821 282.532 147.308 284.59C146.552 285.618 145.758 286.583 145.036 287.264C144.676 287.606 144.333 287.875 144.043 288.045C143.757 288.215 143.527 288.28 143.396 288.28Z" fill="#ADAEAA"/>
<path fill-rule="evenodd" clip-rule="evenodd" d="M143.388 289.578L143.12 289.557C142.733 289.507 142.359 289.25 142.18 288.92C141.995 288.594 141.947 288.249 141.946 287.891C141.947 287.695 141.964 287.492 141.993 287.277C142.755 286.388 143.497 285.432 144.204 284.485C144.113 284.708 144.026 284.929 143.945 285.144C143.513 286.274 143.243 287.298 143.244 287.872C143.244 287.879 143.244 287.885 143.244 287.891C143.244 287.897 143.244 287.902 143.244 287.907C143.244 288.116 143.286 288.242 143.303 288.268L143.304 288.271L143.322 288.275H143.321L143.388 288.28C143.391 288.28 143.393 288.28 143.396 288.28C143.527 288.28 143.757 288.215 144.043 288.045C144.333 287.875 144.676 287.606 145.036 287.264C145.758 286.583 146.552 285.618 147.308 284.59C148.821 282.532 150.186 280.219 150.712 279.3C150.863 279.038 150.945 278.891 150.945 278.891C151.029 278.738 151.176 278.624 151.346 278.578L156.957 277.09C157.624 277.067 158.293 277.054 158.95 277.054C158.965 277.054 158.98 277.054 158.995 277.054C159.993 277.054 160.965 277.081 161.859 277.135L151.943 279.764C151.411 280.7 149.409 284.151 147.326 286.684C146.512 287.669 145.695 288.52 144.877 289.055C144.407 289.356 143.926 289.573 143.388 289.578Z" fill="#1A282B"/>
<path fill-rule="evenodd" clip-rule="evenodd" d="M152.529 268.781C152.529 268.781 143.004 266.514 140.374 270.987C137.743 275.461 130.033 288.702 132.924 290.218C135.814 291.735 138.334 286.839 138.334 286.839L152.529 268.781Z" fill="#FFFFFE"/>
<path fill-rule="evenodd" clip-rule="evenodd" d="M152.529 268.781L152.678 268.15C152.65 268.143 150.204 267.559 147.382 267.558C145.989 267.558 144.502 267.698 143.151 268.147C141.806 268.595 140.57 269.373 139.814 270.658C138.7 272.554 136.671 276.027 134.915 279.53C134.036 281.283 133.226 283.043 132.629 284.631C132.034 286.223 131.642 287.624 131.637 288.76C131.637 289.174 131.69 289.564 131.84 289.922C131.988 290.278 132.258 290.605 132.622 290.793C133.096 291.043 133.59 291.159 134.062 291.158C134.828 291.157 135.514 290.866 136.097 290.474C137.829 289.291 138.879 287.173 138.912 287.136L138.334 286.839L138.844 287.24L153.039 269.182C153.175 269.008 153.214 268.776 153.142 268.567C153.069 268.358 152.894 268.201 152.678 268.15L152.529 268.781L152.017 268.38L137.824 286.437L137.756 286.541L137.741 286.574C137.647 286.749 137.159 287.623 136.456 288.416C136.107 288.813 135.705 289.189 135.291 289.451C134.874 289.714 134.461 289.861 134.062 289.86C133.796 289.859 133.527 289.8 133.226 289.643C133.146 289.598 133.098 289.552 133.035 289.416C132.978 289.282 132.934 289.059 132.935 288.76C132.929 287.934 133.27 286.605 133.844 285.088C135.562 280.513 139.269 274.146 140.933 271.317C141.485 270.379 142.404 269.768 143.562 269.379C144.715 268.994 146.079 268.855 147.382 268.856C148.704 268.855 149.961 268.995 150.883 269.135C151.343 269.205 151.721 269.276 151.981 269.328C152.111 269.353 152.212 269.376 152.28 269.39L152.378 269.412L152.529 268.781L152.017 268.38L152.529 268.781Z" fill="#1A282B"/>
<path fill-rule="evenodd" clip-rule="evenodd" d="M191.507 282.359C191.507 282.359 181.947 285.971 171.977 284.411L161.133 288.015C161.133 288.015 151.604 292.707 147.172 290.34C142.739 287.975 158.469 282.756 158.469 282.756C158.469 282.756 169.048 278.178 165.889 277.08C162.729 275.979 150.794 276.187 148.446 277.986C146.098 279.786 139.95 291.44 135.514 290.775C131.077 290.112 137.389 283.765 138.983 281.322C140.576 278.877 144.152 269.135 151.401 268.73C158.648 268.324 183.036 269.573 183.036 269.573L211.717 266.509L218.484 282.823L191.507 282.359Z" fill="#FFFFFE"/>
<path fill-rule="evenodd" clip-rule="evenodd" d="M191.507 282.359L191.277 281.752C191.277 281.752 191.186 281.787 191 281.852C189.697 282.306 183.944 284.155 177.2 284.152C175.534 284.152 173.81 284.041 172.077 283.769L171.772 283.795L160.928 287.398L160.846 287.432C160.846 287.432 160.759 287.475 160.588 287.554C159.99 287.833 158.412 288.541 156.486 289.173C154.565 289.807 152.29 290.361 150.349 290.358C149.231 290.36 148.235 290.174 147.477 289.768C147.259 289.652 147.138 289.543 147.086 289.474L147.033 289.348C147.024 289.29 147.099 289.063 147.379 288.765C147.857 288.242 148.831 287.592 149.993 286.972C151.739 286.036 153.918 285.13 155.651 284.465C156.519 284.133 157.276 283.859 157.816 283.668C158.354 283.477 158.673 283.372 158.673 283.372L158.726 283.352C158.735 283.347 160.747 282.477 162.779 281.393C163.796 280.849 164.815 280.256 165.611 279.67C166.01 279.376 166.352 279.085 166.622 278.78C166.882 278.472 167.115 278.145 167.126 277.667C167.133 277.384 167.002 277.079 166.802 276.883C166.604 276.681 166.367 276.559 166.102 276.466C165.368 276.213 164.349 276.048 163.121 275.93C161.895 275.814 160.473 275.756 158.995 275.756C156.804 275.756 154.496 275.883 152.535 276.149C151.555 276.283 150.66 276.45 149.903 276.661C149.144 276.874 148.525 277.114 148.051 277.471C147.691 277.749 147.335 278.138 146.93 278.626C145.533 280.323 143.622 283.249 141.582 285.744C140.566 286.99 139.519 288.124 138.526 288.922C137.533 289.727 136.603 290.162 135.885 290.153L135.61 290.134C135.133 290.062 134.885 289.923 134.774 289.81C134.665 289.696 134.615 289.588 134.609 289.343C134.602 288.986 134.793 288.393 135.15 287.731C135.68 286.729 136.541 285.564 137.382 284.486C138.225 283.403 139.041 282.418 139.527 281.676C139.966 281 140.48 279.942 141.149 278.685C142.148 276.807 143.474 274.517 145.181 272.692C146.894 270.86 148.943 269.517 151.437 269.378C152.429 269.322 153.767 269.298 155.329 269.298C160.14 269.298 167.064 269.529 172.779 269.76C175.637 269.875 178.193 269.991 180.035 270.078C181.877 270.164 183 270.222 183.004 270.222L183.105 270.218L211.303 267.206L217.505 282.157L191.517 281.71L191.277 281.752L191.507 282.359L191.495 283.008L218.472 283.472C218.692 283.476 218.897 283.369 219.02 283.189C219.144 283.007 219.167 282.777 219.084 282.575L212.317 266.26C212.207 265.993 211.934 265.832 211.648 265.864L182.968 268.928L183.036 269.573L183.07 268.925C183.064 268.925 165.022 268.001 155.329 267.999C153.753 267.999 152.398 268.024 151.364 268.082C149.407 268.19 147.698 268.935 146.243 270.001C144.058 271.602 142.411 273.911 141.143 276.039C140.51 277.103 139.974 278.124 139.524 278.987C139.075 279.848 138.705 280.56 138.439 280.967C137.891 281.811 136.625 283.29 135.502 284.814C134.939 285.58 134.406 286.363 134.004 287.122C133.605 287.881 133.317 288.608 133.31 289.343C133.305 289.834 133.474 290.36 133.862 290.735C134.247 291.113 134.776 291.322 135.418 291.418C135.573 291.441 135.729 291.452 135.885 291.452C137.268 291.439 138.554 290.636 139.814 289.533C141.699 287.864 143.547 285.401 145.154 283.191C145.956 282.088 146.695 281.048 147.333 280.212C147.964 279.379 148.518 278.742 148.841 278.502C149.069 278.321 149.576 278.095 150.25 277.911C152.285 277.344 155.792 277.051 158.995 277.054C160.438 277.054 161.826 277.111 162.999 277.222C164.169 277.331 165.135 277.502 165.675 277.693L165.83 277.76L165.871 277.788L165.893 277.762L165.867 277.782L165.871 277.788L165.893 277.762L165.867 277.782L166.015 277.667H165.828L165.867 277.782L166.015 277.667H165.828H165.891L165.829 277.649L165.828 277.667H165.891L165.829 277.649C165.83 277.671 165.732 277.853 165.518 278.059C165.15 278.429 164.489 278.9 163.726 279.364C162.578 280.064 161.193 280.767 160.101 281.291C159.554 281.553 159.08 281.771 158.744 281.923C158.408 282.075 158.212 282.161 158.21 282.161L158.469 282.756L158.264 282.14C158.253 282.144 155.22 283.149 152.165 284.49C150.636 285.161 149.104 285.913 147.917 286.685C147.324 287.074 146.816 287.464 146.426 287.882C146.047 288.299 145.744 288.761 145.734 289.348C145.732 289.675 145.854 290.009 146.059 290.269C146.264 290.532 146.537 290.738 146.865 290.914C147.892 291.459 149.095 291.655 150.349 291.657C152.836 291.653 155.576 290.882 157.722 290.122C159.866 289.361 161.404 288.604 161.42 288.597L161.133 288.015L161.338 288.63L172.181 285.027L171.977 284.411L171.876 285.052C173.686 285.335 175.477 285.451 177.2 285.451C185.175 285.448 191.694 282.98 191.735 282.967L191.507 282.359L191.495 283.008L191.507 282.359Z" fill="#1A282B"/>
<path fill-rule="evenodd" clip-rule="evenodd" d="M206.474 286.398C207.862 287.273 209.822 287.829 211.943 286.315C211.943 286.315 215.049 287.667 217.146 285.36C219.241 283.054 219.426 262.895 213.627 260.623C211.955 259.968 207.779 260.036 207.091 262.375C207.091 262.375 203.487 261.136 202.878 265C202.304 268.637 205.916 272.02 204.706 282.48C204.528 284.025 205.227 285.613 206.474 286.398Z" fill="#6EBD92"/>
<path fill-rule="evenodd" clip-rule="evenodd" d="M206.474 286.398L206.129 286.948C206.956 287.469 208.003 287.91 209.202 287.911C210.19 287.912 211.265 287.599 212.321 286.844L211.943 286.315L211.685 286.91C211.732 286.928 212.701 287.354 214.01 287.358C215.118 287.364 216.519 287.02 217.626 285.797C217.943 285.439 218.135 284.983 218.317 284.411C218.843 282.705 219.13 279.884 219.133 276.702C219.132 273.36 218.805 269.649 218.016 266.549C217.62 264.999 217.109 263.6 216.443 262.466C215.777 261.335 214.942 260.444 213.865 260.018C213.191 259.757 212.302 259.62 211.339 259.617C210.381 259.618 209.361 259.76 208.465 260.139C207.577 260.512 206.768 261.173 206.469 262.192L207.091 262.375L207.303 261.762C207.261 261.749 206.656 261.539 205.834 261.537C205.197 261.537 204.404 261.668 203.697 262.188C202.987 262.706 202.435 263.6 202.237 264.899C202.189 265.205 202.167 265.509 202.167 265.812C202.174 267.401 202.738 268.896 203.26 270.814C203.787 272.732 204.306 275.081 204.308 278.352C204.308 279.569 204.235 280.911 204.062 282.405C204.04 282.59 204.03 282.776 204.03 282.962C204.034 284.553 204.796 286.1 206.129 286.948L206.474 286.398L206.821 285.849C205.919 285.288 205.324 284.138 205.328 282.962C205.328 282.825 205.336 282.689 205.351 282.554C205.529 281.014 205.605 279.62 205.605 278.352C205.606 274.943 205.055 272.441 204.511 270.47C203.963 268.497 203.457 267.062 203.465 265.812C203.465 265.571 203.482 265.336 203.519 265.101C203.691 264.044 204.067 263.533 204.467 263.233C204.87 262.934 205.37 262.836 205.834 262.836C206.13 262.836 206.403 262.876 206.595 262.916L206.819 262.971L206.872 262.986L206.881 262.989C207.05 263.047 207.231 263.034 207.39 262.953C207.548 262.871 207.664 262.729 207.714 262.558C207.873 262.02 208.297 261.626 208.973 261.333C209.64 261.048 210.515 260.914 211.339 260.915C212.163 260.913 212.947 261.05 213.391 261.227C214.085 261.497 214.746 262.138 215.324 263.124C216.191 264.592 216.837 266.775 217.243 269.19C217.652 271.607 217.835 274.26 217.835 276.702C217.835 278.765 217.704 280.68 217.478 282.166C217.365 282.908 217.227 283.543 217.077 284.025C216.933 284.507 216.754 284.835 216.665 284.923C215.842 285.823 214.884 286.053 214.01 286.059C213.502 286.059 213.038 285.972 212.707 285.884C212.542 285.84 212.409 285.797 212.322 285.766L212.225 285.728L212.203 285.719C211.994 285.628 211.752 285.654 211.567 285.787C210.702 286.4 209.924 286.61 209.202 286.613C208.33 286.613 207.513 286.287 206.821 285.849L206.474 286.398Z" fill="#1A282B"/>
<path fill-rule="evenodd" clip-rule="evenodd" d="M209.197 286.613C208.327 286.613 207.512 286.285 206.821 285.849L206.474 286.398L206.821 285.849C206.354 285.558 205.968 285.109 205.707 284.581C205.773 284.516 205.83 284.461 205.876 284.416C206.058 284.373 206.377 284.299 206.803 284.205C208.602 283.806 212.298 283.06 215.123 282.884V284.708C215.123 285.047 215.384 285.329 215.721 285.355C215.724 285.355 215.877 285.366 216.159 285.386C215.463 285.906 214.71 286.054 214.01 286.06C214.009 286.06 214.007 286.06 214.006 286.06C213.5 286.06 213.038 285.973 212.707 285.884C212.542 285.84 212.409 285.797 212.322 285.766L212.225 285.728L212.203 285.719C212.12 285.684 212.031 285.666 211.943 285.666C211.811 285.666 211.678 285.706 211.567 285.787C210.702 286.4 209.924 286.61 209.202 286.613C209.201 286.613 209.198 286.613 209.197 286.613ZM205.597 277.592C205.586 277.181 205.568 276.787 205.543 276.404L208.021 276.427C207.394 276.72 206.698 277.05 205.981 277.402C205.852 277.464 205.725 277.528 205.597 277.592Z" fill="#3B966C"/>
<path fill-rule="evenodd" clip-rule="evenodd" d="M209.213 287.911C209.21 287.911 209.206 287.911 209.202 287.911C208.003 287.91 206.956 287.47 206.129 286.948C205.55 286.58 205.079 286.08 204.731 285.503C205.147 285.118 205.484 284.796 205.707 284.581C205.968 285.109 206.354 285.558 206.821 285.849L206.474 286.398L206.821 285.849C207.512 286.285 208.327 286.613 209.197 286.613C209.198 286.613 209.201 286.613 209.202 286.613C209.924 286.61 210.702 286.4 211.567 285.787C211.678 285.706 211.811 285.666 211.943 285.666C212.031 285.666 212.12 285.684 212.203 285.719L212.225 285.728L212.322 285.766C212.409 285.797 212.542 285.84 212.707 285.884C213.038 285.973 213.5 286.06 214.006 286.06C214.007 286.06 214.009 286.06 214.01 286.06C214.71 286.054 215.463 285.906 216.159 285.386C216.525 285.409 217.109 285.447 217.857 285.484C217.788 285.596 217.712 285.7 217.626 285.797C216.528 287.01 215.142 287.358 214.037 287.358C214.028 287.358 214.019 287.358 214.01 287.358C213.148 287.355 212.434 287.171 212.033 287.038C211.074 287.651 210.109 287.911 209.213 287.911ZM204.306 278.243C204.304 277.59 204.281 276.974 204.241 276.391L205.543 276.404C205.568 276.787 205.586 277.181 205.597 277.592C205.167 277.803 204.735 278.021 204.306 278.243Z" fill="#1A282B"/>
<path fill-rule="evenodd" clip-rule="evenodd" d="M213.74 281.71C213.74 281.706 213.741 281.636 213.741 281.509C213.736 280.151 213.612 272.224 210.245 265.48C210.085 265.16 209.696 265.03 209.375 265.19C209.054 265.351 208.924 265.74 209.084 266.061C212.29 272.449 212.45 280.249 212.443 281.509C212.443 281.628 212.443 281.684 212.443 281.685C212.435 282.044 212.721 282.34 213.079 282.346C213.438 282.353 213.734 282.068 213.74 281.71Z" fill="#1A282B"/>
<path fill-rule="evenodd" clip-rule="evenodd" d="M349.593 274.373C348.633 281.761 347.541 289.759 346.295 298.445H234.845L235.377 284.085C228.717 285.695 215.771 284.708 215.771 284.708V263.48C223.64 259.026 224.809 260.273 224.809 260.273C224.809 260.273 225.211 208.468 229.924 195.536C231.924 190.057 235.429 186.149 239.141 183.41V183.397C240.311 182.527 241.493 181.774 242.661 181.125L242.83 181.021C244.128 180.333 245.699 179.606 247.491 178.853C247.647 178.786 247.816 178.723 247.984 178.658C265.434 171.53 303.515 163.259 338.999 178.424C341.478 179.489 361.734 189.162 363.461 203.145C364.447 211.117 359.02 250.769 349.593 274.373Z" fill="#626262"/>
<path fill-rule="evenodd" clip-rule="evenodd" d="M320.377 261.079C319.821 260.831 319.167 260.657 318.419 260.525C317.247 260.32 315.839 260.23 314.237 260.23C312.504 260.231 310.538 260.336 308.413 260.522C309.524 259.178 310.446 257.738 311.163 256.196C323.198 230.152 328.497 218.349 330.645 213.48L320.377 261.079Z" fill="#3B3B3B"/>
<path fill-rule="evenodd" clip-rule="evenodd" d="M345.733 297.795H235.519L235.914 287.133C238.737 287.063 241.813 286.661 245.084 285.76L261.795 287.837C261.863 288.416 261.99 288.957 262.216 289.481C262.931 291.14 263.996 291.585 264.933 291.585C266.028 291.585 266.951 290.979 266.951 290.979C267.49 291.885 268.557 292.218 269.712 292.218C271.22 292.218 272.878 291.652 273.707 291.057C283.326 292.105 303.041 294.015 318.857 294.016C325.952 294.015 332.254 293.637 336.581 292.598C338.931 292.024 341.073 290.327 343.074 287.846L347.06 288.372C346.638 291.419 346.196 294.56 345.733 297.795Z" fill="#3B3B3B"/>
<path fill-rule="evenodd" clip-rule="evenodd" d="M220.847 284.305C219.916 284.278 219.07 284.243 218.347 284.209C217.52 284.169 216.859 284.13 216.42 284.102V282.845C217.303 282.851 218.01 282.969 218.316 283.133C218.844 283.397 219.7 283.825 220.847 284.305ZM236.717 270.121H231.119C230.576 269.961 227.683 269.118 223.788 268.208C223.962 268.073 224.126 267.928 224.28 267.773C225.275 266.78 225.86 265.395 225.859 263.863C225.859 263.613 225.843 263.359 225.812 263.103L225.168 263.182L225.812 263.103L225.547 260.944C225.962 261.092 226.142 261.252 226.142 261.252C226.142 261.252 229.022 248.695 230.377 232.999C231.361 221.611 231.872 209.504 238.232 207.755C237.707 225.822 237.891 254.334 236.717 270.121Z" fill="#3B3B3B"/>
<path fill-rule="evenodd" clip-rule="evenodd" d="M349.593 274.373L348.949 274.289C347.991 281.674 346.899 289.669 345.652 298.352L346.295 298.445V297.795H235.519L236.025 284.109C236.033 283.906 235.946 283.711 235.788 283.582C235.629 283.454 235.423 283.406 235.224 283.454C232.338 284.155 228.101 284.36 224.342 284.357C222.035 284.357 219.902 284.283 218.347 284.209C216.792 284.134 215.824 284.06 215.821 284.06L215.771 284.708H216.42V263.48H215.771L216.091 264.045C221.086 261.21 223.325 260.752 224.101 260.762C224.318 260.762 224.415 260.793 224.436 260.801H224.439L224.614 260.456L224.335 260.717L224.439 260.801L224.614 260.456L224.335 260.717C224.516 260.91 224.798 260.974 225.045 260.878C225.292 260.782 225.455 260.543 225.458 260.278C225.458 260.275 225.464 259.472 225.484 258.031C225.555 252.99 225.795 240.204 226.534 227.275C226.903 220.81 227.396 214.31 228.053 208.73C228.708 203.155 229.537 198.483 230.534 195.759C232.483 190.42 235.893 186.616 239.527 183.932C239.693 183.81 239.792 183.616 239.792 183.41V183.397H239.141L239.529 183.918C240.675 183.066 241.831 182.328 242.977 181.692L243.001 181.678L243.17 181.574L242.83 181.021L243.134 181.595C244.407 180.92 245.963 180.199 247.742 179.451H247.743C247.884 179.391 248.048 179.328 248.217 179.264L248.23 179.259C258.392 175.106 275.682 170.543 295.343 170.544C309.177 170.544 324.186 172.8 338.745 179.021H338.744C339.936 179.532 345.595 182.205 351.116 186.455C356.653 190.703 362.005 196.532 362.817 203.224C362.888 203.805 362.927 204.6 362.926 205.568C362.928 211.305 361.61 223.064 359.204 236.057C356.803 249.055 353.31 263.32 348.99 274.132L348.949 274.289L349.593 274.373L350.196 274.613C354.568 263.664 358.067 249.347 360.482 236.293C362.896 223.234 364.223 211.471 364.224 205.568C364.224 204.565 364.186 203.729 364.104 203.066C363.189 195.774 357.55 189.774 351.908 185.425C346.251 181.075 340.542 178.381 339.255 177.828V177.827C324.503 171.523 309.318 169.246 295.343 169.246C275.477 169.249 258.062 173.841 247.738 178.057L247.984 178.658L247.752 178.052C247.583 178.116 247.408 178.183 247.238 178.255L247.239 178.254C245.434 179.014 243.848 179.746 242.526 180.448L242.488 180.469L242.321 180.573L242.661 181.125L242.346 180.557C241.152 181.22 239.947 181.988 238.754 182.876C238.589 183 238.493 183.192 238.493 183.397V183.41H239.141L238.757 182.888C234.964 185.685 231.364 189.697 229.314 195.313C228.097 198.664 227.196 204.338 226.49 211.039C224.384 231.118 224.159 260.257 224.159 260.268L224.809 260.273L225.282 259.829C225.142 259.674 224.776 259.457 224.101 259.464C222.888 259.474 220.545 260.04 215.451 262.915C215.247 263.031 215.123 263.246 215.123 263.48V284.708C215.123 285.047 215.384 285.329 215.721 285.355C215.732 285.356 219.674 285.656 224.342 285.656C228.153 285.654 232.434 285.461 235.529 284.716L235.377 284.085L234.728 284.061L234.196 298.42C234.189 298.597 234.255 298.768 234.377 298.895C234.5 299.021 234.668 299.094 234.845 299.094H346.295C346.618 299.094 346.892 298.856 346.938 298.537C348.184 289.848 349.277 281.848 350.237 274.456L349.593 274.373L350.196 274.613L349.593 274.373Z" fill="#1A282B"/>
<path fill-rule="evenodd" clip-rule="evenodd" d="M362.816 203.224C362.853 203.528 362.889 203.869 362.902 204.243V204.26C362.929 204.724 362.942 205.256 362.942 205.849C362.944 211.732 361.615 223.494 359.202 236.432C356.789 249.376 353.29 263.526 348.978 274.248C347.089 278.935 345.044 282.969 342.892 285.944C340.742 288.926 338.489 290.81 336.277 291.335C332.153 292.331 325.899 292.719 318.857 292.717C308.033 292.717 295.324 291.814 285.326 290.91C280.328 290.458 276.005 290.005 272.935 289.666C269.864 289.327 268.05 289.103 268.045 289.102L267.966 289.746L268.597 289.899C268.605 289.862 269.116 287.742 269.116 284.505C269.116 280.453 268.314 274.634 264.68 269.009L264.136 269.361L264.289 269.992C264.29 269.992 264.828 269.86 265.806 269.629C269.224 268.819 277.988 266.791 287.575 264.966C297.157 263.142 307.584 261.526 314.237 261.528C315.79 261.528 317.135 261.617 318.196 261.804C319.256 261.985 320.028 262.281 320.42 262.599C320.595 262.738 320.831 262.776 321.042 262.701C321.252 262.625 321.41 262.445 321.457 262.227L332.596 210.592C332.671 210.242 332.449 209.896 332.099 209.82C331.748 209.744 331.403 209.968 331.326 210.318L320.187 261.953L320.822 262.09L321.225 261.582C320.537 261.043 319.591 260.734 318.419 260.525C317.247 260.32 315.839 260.23 314.237 260.23C306.421 260.233 293.894 262.362 283.275 264.483C272.663 266.607 263.987 268.73 263.981 268.732C263.776 268.781 263.61 268.926 263.532 269.121C263.454 269.317 263.476 269.537 263.591 269.714C267.047 275.062 267.818 280.619 267.818 284.505C267.818 286.054 267.695 287.336 267.573 288.225C267.512 288.671 267.452 289.017 267.406 289.25L267.353 289.512L267.335 289.594C267.291 289.774 267.326 289.962 267.431 290.116C267.538 290.267 267.701 290.367 267.885 290.391C267.898 290.391 297.077 294.015 318.857 294.016C325.952 294.015 332.254 293.637 336.58 292.598C339.275 291.94 341.697 289.805 343.945 286.705C346.191 283.597 348.267 279.483 350.182 274.733C354.547 263.874 358.054 249.67 360.478 236.67C362.901 223.665 364.238 211.897 364.241 205.849C364.241 205.237 364.226 204.681 364.199 204.186L363.55 204.223L364.199 204.203C364.186 203.769 364.143 203.384 364.104 203.067C364.062 202.71 363.737 202.457 363.381 202.501C363.025 202.545 362.772 202.868 362.816 203.224Z" fill="#1A282B"/>
<path fill-rule="evenodd" clip-rule="evenodd" d="M324.085 265.505L324.125 265.522C324.595 265.722 328.931 267.681 332.715 272.924C332.926 273.215 333.331 273.28 333.622 273.071C333.912 272.86 333.979 272.455 333.768 272.164C329.527 266.295 324.638 264.329 324.567 264.299C324.234 264.167 323.857 264.329 323.723 264.661C323.59 264.994 323.751 265.371 324.085 265.505Z" fill="#1A282B"/>
<path fill-rule="evenodd" clip-rule="evenodd" d="M196.121 266.757C196.121 266.757 191.433 265.77 189.522 267.905C187.527 270.133 179.436 282.332 182.199 284.675C184.959 287.018 190.584 274.167 190.584 274.167L196.121 266.757Z" fill="#FFFFFE"/>
<path fill-rule="evenodd" clip-rule="evenodd" d="M196.121 266.757L196.255 266.122C196.228 266.117 195.111 265.88 193.701 265.88C192.939 265.88 192.09 265.949 191.268 266.175C190.45 266.402 189.646 266.794 189.039 267.472C188.573 267.993 187.864 268.934 187.033 270.147C185.789 271.963 184.293 274.366 183.097 276.723C182.5 277.901 181.977 279.068 181.599 280.151C181.221 281.236 180.982 282.233 180.98 283.12C180.981 283.515 181.029 283.893 181.154 284.244C181.277 284.595 181.484 284.922 181.778 285.17C182.108 285.456 182.533 285.614 182.945 285.61C183.515 285.605 184.019 285.361 184.491 285.023C185.314 284.424 186.095 283.477 186.86 282.383C189.136 279.104 191.168 274.446 191.178 274.427L190.584 274.167L191.104 274.556L196.641 267.146C196.773 266.968 196.807 266.735 196.729 266.528C196.65 266.321 196.472 266.167 196.255 266.122L196.121 266.757L195.601 266.369L190.063 273.778L189.989 273.907C189.989 273.907 189.918 274.069 189.785 274.361C189.319 275.38 188.105 277.949 186.708 280.232C186.012 281.372 185.267 282.444 184.571 283.198C184.226 283.574 183.892 283.872 183.604 284.057C183.315 284.247 183.084 284.314 182.945 284.312C182.827 284.308 182.749 284.286 182.618 284.181C182.517 284.094 182.44 283.983 182.378 283.811C182.316 283.639 182.278 283.407 182.279 283.12C182.273 282.259 182.63 280.963 183.222 279.538C184.107 277.392 185.498 274.923 186.822 272.829C188.143 270.738 189.416 268.993 190.006 268.338C190.39 267.906 190.954 267.61 191.616 267.427C192.274 267.244 193.019 267.177 193.701 267.179C194.333 267.179 194.912 267.232 195.328 267.286C195.537 267.314 195.704 267.341 195.819 267.361L195.987 267.393L196.121 266.757L195.601 266.369L196.121 266.757Z" fill="#1A282B"/>
<path fill-rule="evenodd" clip-rule="evenodd" d="M205.55 266.535C205.55 266.535 195.124 264.295 192.788 267.479C190.453 270.662 177.316 287.116 185.489 287.647L198.544 272.999L205.55 266.535Z" fill="#FFFFFE"/>
<path fill-rule="evenodd" clip-rule="evenodd" d="M205.55 266.535L205.686 265.9C205.663 265.896 202.079 265.122 198.562 265.12C197.309 265.121 196.063 265.217 194.964 265.499C193.871 265.783 192.891 266.252 192.265 267.094C191.382 268.299 188.879 271.496 186.598 275.003C185.457 276.759 184.367 278.597 183.556 280.323C182.746 282.055 182.198 283.665 182.191 285.062C182.189 285.904 182.411 286.711 182.982 287.31C183.552 287.91 184.397 288.229 185.446 288.295C185.646 288.308 185.841 288.229 185.973 288.08L199.008 273.455L205.99 267.011C206.168 266.846 206.239 266.597 206.176 266.363C206.112 266.13 205.923 265.951 205.686 265.9L205.55 266.535L205.11 266.057L198.104 272.523L198.06 272.567L185.003 287.215L185.489 287.647L185.531 287C184.68 286.942 184.201 286.707 183.922 286.415C183.644 286.122 183.492 285.699 183.49 285.062C183.483 284.02 183.954 282.518 184.731 280.876C185.89 278.408 187.699 275.605 189.385 273.202C191.072 270.796 192.629 268.794 193.312 267.863C193.657 267.383 194.346 266.997 195.288 266.757C196.224 266.514 197.379 266.418 198.562 266.418C200.227 266.418 201.95 266.606 203.248 266.794C203.897 266.888 204.441 266.983 204.822 267.053C205.202 267.123 205.412 267.168 205.414 267.168L205.55 266.535L205.11 266.057L205.55 266.535Z" fill="#1A282B"/>
<path fill-rule="evenodd" clip-rule="evenodd" d="M229.105 284.038C229.105 284.038 218.393 286.374 214.041 287.223C209.689 288.071 201.622 293.696 196.846 291.468C192.07 289.239 212.45 280.961 212.45 280.961L219.454 278.14L229.105 284.038Z" fill="#BBBAB6"/>
<path fill-rule="evenodd" clip-rule="evenodd" d="M229.105 284.038L228.966 283.403C228.961 283.404 226.29 283.987 223.069 284.677C219.849 285.366 216.083 286.163 213.917 286.585C211.951 286.976 209.487 288.18 206.89 289.273C204.305 290.371 201.607 291.344 199.419 291.337C198.566 291.337 197.796 291.195 197.121 290.88C196.931 290.792 196.837 290.708 196.803 290.664L196.77 290.583C196.752 290.516 196.886 290.171 197.292 289.76C197.984 289.03 199.323 288.106 200.908 287.188C203.292 285.802 206.245 284.391 208.596 283.332C209.771 282.802 210.798 282.359 211.529 282.049C212.26 281.739 212.692 281.562 212.693 281.562L212.692 281.563L219.394 278.864L228.766 284.592L229.105 284.038L228.966 283.403L229.105 284.038L229.444 283.484L219.793 277.585C219.618 277.479 219.403 277.461 219.213 277.537L212.207 280.358L212.205 280.36C212.196 280.362 208.105 282.024 203.996 284.069C201.939 285.094 199.881 286.21 198.306 287.281C197.518 287.819 196.851 288.342 196.354 288.863C195.867 289.386 195.489 289.904 195.472 290.583C195.468 290.897 195.585 291.227 195.789 291.475C195.993 291.727 196.26 291.91 196.572 292.057C197.456 292.47 198.423 292.636 199.419 292.636C201.972 292.629 204.764 291.575 207.395 290.469C210.014 289.357 212.491 288.18 214.166 287.86C218.534 287.007 229.24 284.673 229.244 284.673C229.502 284.616 229.701 284.407 229.745 284.146C229.789 283.885 229.67 283.623 229.444 283.484L229.105 284.038Z" fill="#1A282B"/>
<path fill-rule="evenodd" clip-rule="evenodd" d="M238.426 219.965C238.578 215.904 238.73 211.841 238.88 207.78C238.894 207.422 238.614 207.12 238.256 207.106C237.897 207.093 237.596 207.372 237.583 207.731C237.431 211.792 237.281 215.855 237.129 219.916C237.114 220.274 237.395 220.575 237.752 220.588C238.11 220.603 238.413 220.322 238.426 219.965Z" fill="#1A282B"/>
<path fill-rule="evenodd" clip-rule="evenodd" d="M235.491 298.496C237.481 273.876 238.219 225.488 238.219 225.481C238.225 225.122 237.939 224.828 237.581 224.822C237.222 224.816 236.926 225.103 236.921 225.461C236.921 225.464 236.909 226.217 236.886 227.587C236.717 237.179 235.933 276.926 234.198 298.391C234.168 298.75 234.435 299.063 234.793 299.091C235.15 299.12 235.463 298.854 235.491 298.496Z" fill="#1A282B"/>
<path fill-rule="evenodd" clip-rule="evenodd" d="M267.963 270.77H231.024C231.024 270.77 202.365 262.172 197.59 268.86C192.813 275.547 182.622 285.738 185.489 287.647C188.354 289.557 200.455 275.706 200.455 275.706L210.963 275.805C210.963 275.805 202.047 279.686 200.136 281.597C198.226 283.508 194.087 288.921 196.316 289.877C198.544 290.831 205.55 283.826 205.55 283.826C205.55 283.826 216.059 281.279 218.606 282.551C221.154 283.826 231.343 288.921 245.036 285.099L273.222 288.603L267.963 270.77Z" fill="#FFFFFE"/>
<path fill-rule="evenodd" clip-rule="evenodd" d="M267.963 270.77V270.121H231.024V270.77L231.211 270.148C231.202 270.146 227.474 269.028 222.475 267.908C217.473 266.789 211.208 265.666 206.065 265.664C204.063 265.665 202.229 265.834 200.682 266.258C199.142 266.684 197.858 267.372 197.061 268.482C194.989 271.384 191.842 275.004 189.205 278.314C187.886 279.97 186.694 281.549 185.816 282.946C185.379 283.646 185.018 284.299 184.761 284.907C184.505 285.514 184.342 286.075 184.34 286.623C184.34 286.922 184.392 287.22 184.524 287.497C184.654 287.773 184.867 288.016 185.128 288.188C185.438 288.395 185.802 288.478 186.152 288.477C186.792 288.472 187.434 288.238 188.13 287.885C190.536 286.639 193.679 283.724 196.298 281.095C198.905 278.468 200.938 276.14 200.945 276.134L200.455 275.706L200.449 276.356L210.958 276.454L210.963 275.805L210.704 275.21C210.699 275.212 208.463 276.185 205.981 277.402C204.738 278.01 203.435 278.68 202.312 279.322C201.183 279.972 200.25 280.571 199.677 281.137C198.879 281.939 197.749 283.273 196.796 284.685C196.32 285.39 195.887 286.113 195.567 286.807C195.249 287.505 195.029 288.164 195.024 288.812C195.024 289.141 195.088 289.477 195.263 289.782C195.436 290.086 195.724 290.332 196.059 290.474H196.06C196.299 290.575 196.551 290.615 196.798 290.615C197.697 290.601 198.613 290.156 199.605 289.561C202.543 287.762 205.989 284.3 206.008 284.285L205.55 283.826L205.703 284.457C205.704 284.457 206.116 284.357 206.803 284.205C208.859 283.75 213.392 282.841 216.27 282.845C217.221 282.838 217.993 282.96 218.315 283.133C220.212 284.081 226.343 287.146 234.995 287.145C238.101 287.145 241.534 286.75 245.21 285.725L245.036 285.099L244.955 285.743L273.141 289.247C273.358 289.274 273.574 289.19 273.716 289.022C273.858 288.855 273.906 288.629 273.844 288.419L268.585 270.587C268.505 270.31 268.252 270.121 267.963 270.121V270.77L267.34 270.954L272.318 287.836L245.116 284.455L244.862 284.474C241.304 285.466 237.992 285.847 234.995 285.847C226.643 285.845 220.748 282.898 218.896 281.971C218.2 281.633 217.317 281.553 216.27 281.546C214.19 281.548 211.495 281.962 209.293 282.372C207.095 282.784 205.404 283.194 205.397 283.195L205.09 283.367C205.09 283.368 204.999 283.459 204.829 283.624C204.233 284.203 202.695 285.661 201.041 286.958C200.216 287.607 199.361 288.215 198.596 288.648C197.838 289.087 197.151 289.327 196.798 289.317L196.57 289.279L196.572 289.281L196.387 289.133C196.355 289.076 196.322 288.977 196.322 288.812C196.319 288.489 196.465 287.951 196.746 287.351C197.578 285.534 199.506 283.138 200.595 282.057C200.977 281.667 201.876 281.065 202.957 280.449C204.585 279.517 206.657 278.5 208.317 277.721C209.148 277.332 209.875 277.001 210.394 276.768C210.913 276.535 211.221 276.401 211.222 276.401C211.503 276.279 211.66 275.975 211.599 275.677C211.538 275.377 211.276 275.158 210.969 275.156L200.462 275.057C200.271 275.056 200.092 275.136 199.967 275.279C199.966 275.279 199.805 275.465 199.51 275.795C198.478 276.946 195.838 279.836 193.069 282.424C191.685 283.716 190.267 284.934 189.019 285.812C188.397 286.25 187.816 286.604 187.318 286.839C186.821 287.075 186.404 287.183 186.152 287.179C185.991 287.177 185.908 287.146 185.849 287.107L185.695 286.937C185.664 286.871 185.638 286.772 185.638 286.623C185.636 286.352 185.736 285.926 185.955 285.413C186.718 283.597 188.841 280.801 191.222 277.879C193.606 274.944 196.251 271.848 198.117 269.237C198.657 268.475 199.648 267.889 201.028 267.51C202.403 267.129 204.139 266.962 206.065 266.962C211.025 266.961 217.239 268.066 222.191 269.176C224.668 269.73 226.833 270.284 228.376 270.701C229.148 270.909 229.764 271.082 230.188 271.202C230.611 271.324 230.837 271.392 230.838 271.392L231.024 271.419H267.963V270.77L267.34 270.954L267.963 270.77Z" fill="#1A282B"/>
<path fill-rule="evenodd" clip-rule="evenodd" d="M328.745 228.223C328.223 225.186 327.959 222.1 327.959 219.015C327.959 216.183 328.181 213.35 328.629 210.557C328.686 210.204 328.445 209.87 328.092 209.813C327.737 209.757 327.405 209.998 327.348 210.352C326.888 213.214 326.661 216.114 326.661 219.015C326.661 222.174 326.931 225.333 327.466 228.442C327.526 228.797 327.862 229.033 328.215 228.972C328.568 228.912 328.806 228.576 328.745 228.223Z" fill="#1A282B"/>
<path fill-rule="evenodd" clip-rule="evenodd" d="M337.001 197.762L337.073 197.67C337.441 197.201 339.215 195.013 341.719 192.967C344.223 190.913 347.449 189.038 350.638 189.049C352.755 189.055 354.889 189.829 356.993 191.997C359.091 194.165 361.123 197.761 362.84 203.337C362.946 203.679 363.309 203.871 363.651 203.766C363.994 203.66 364.186 203.297 364.081 202.954C362.323 197.258 360.229 193.48 357.927 191.095C355.63 188.707 353.089 187.744 350.638 187.75C346.693 187.763 343.062 190.109 340.385 192.392C337.709 194.682 335.985 196.954 335.966 196.978C335.75 197.263 335.805 197.67 336.091 197.887C336.377 198.103 336.784 198.048 337.001 197.762Z" fill="#1A282B"/>
<path fill-rule="evenodd" clip-rule="evenodd" d="M260.386 267.859C261.512 266.668 263.272 265.644 265.704 266.583C265.704 266.583 268.376 264.503 270.979 266.215C273.584 267.93 278.767 287.411 273.716 291.05C272.258 292.102 268.197 293.073 266.951 290.979C266.951 290.979 263.766 293.073 262.216 289.481C260.757 286.102 263.415 281.927 259.646 272.096C259.089 270.643 259.372 268.932 260.386 267.859Z" fill="#6EBD92"/>
<mask id="mask0_301_1022" style="mask-type:luminance" maskUnits="userSpaceOnUse" x="259" y="265" width="17" height="28">
<path fill-rule="evenodd" clip-rule="evenodd" d="M260.386 267.859C261.512 266.668 263.272 265.644 265.704 266.583C265.704 266.583 268.376 264.503 270.979 266.215C273.584 267.93 278.767 287.411 273.716 291.05C272.258 292.102 268.197 293.073 266.951 290.979C266.951 290.979 263.766 293.073 262.216 289.481C260.757 286.102 263.415 281.927 259.646 272.096C259.089 270.643 259.372 268.932 260.386 267.859Z" fill="white"/>
</mask>
<g mask="url(#mask0_301_1022)">
<path fill-rule="evenodd" clip-rule="evenodd" d="M269.712 292.218C268.557 292.218 267.489 291.885 266.951 290.979C266.951 290.979 266.027 291.585 264.933 291.585C263.996 291.585 262.931 291.14 262.215 289.481C261.819 288.564 261.727 287.588 261.727 286.456C261.727 285.466 261.797 284.357 261.797 283.066C261.799 280.39 261.497 276.924 259.646 272.096C259.456 271.601 259.364 271.078 259.364 270.56C259.366 269.553 259.716 268.567 260.386 267.859C261.204 266.994 262.358 266.217 263.86 266.217C264.425 266.217 265.039 266.326 265.704 266.583C265.704 266.583 267.044 265.539 268.751 265.539C269.455 265.539 270.22 265.716 270.979 266.215C272.791 267.407 275.848 277.189 275.846 284.263C275.844 286.533 275.528 288.525 274.754 289.865C274.471 290.353 274.128 290.754 273.716 291.05C273.712 291.053 273.71 291.056 273.707 291.057C272.878 291.652 271.22 292.218 269.712 292.218Z" fill="#3B3B3B"/>
</g>
<path fill-rule="evenodd" clip-rule="evenodd" d="M260.386 267.859L260.858 268.306C261.609 267.515 262.595 266.865 263.861 266.866C264.341 266.866 264.873 266.958 265.469 267.188C265.682 267.27 265.923 267.235 266.103 267.094L266.108 267.09C266.206 267.009 267.403 266.176 268.752 266.188C269.348 266.191 269.972 266.332 270.624 266.758C270.719 266.815 270.937 267.041 271.164 267.397C271.987 268.652 273.028 271.388 273.822 274.524C274.622 277.666 275.198 281.239 275.197 284.254C275.197 285.764 275.051 287.132 274.736 288.219C274.42 289.311 273.941 290.092 273.337 290.525C273.01 290.762 272.435 291.039 271.782 291.237C271.126 291.439 270.388 291.568 269.712 291.568C269.197 291.568 268.72 291.492 268.347 291.337C267.971 291.18 267.7 290.965 267.509 290.647C267.417 290.493 267.27 290.386 267.096 290.345C266.922 290.306 266.743 290.338 266.594 290.436H266.592C266.541 290.478 265.734 290.947 264.933 290.936C264.566 290.935 264.207 290.854 263.854 290.617C263.502 290.378 263.134 289.966 262.812 289.224C262.469 288.43 262.377 287.555 262.377 286.454C262.375 285.495 262.447 284.377 262.447 283.058C262.449 280.331 262.133 276.761 260.253 271.863C260.093 271.448 260.014 271.004 260.014 270.564C260.014 269.704 260.318 268.874 260.858 268.304L260.386 267.859L259.914 267.414C259.115 268.262 258.717 269.407 258.715 270.564C258.715 271.158 258.822 271.758 259.04 272.328C260.86 277.081 261.147 280.435 261.148 283.058C261.148 284.33 261.078 285.432 261.078 286.454C261.078 287.619 261.171 288.697 261.62 289.738C262.013 290.654 262.535 291.295 263.128 291.693C263.721 292.094 264.363 292.237 264.933 292.235C266.267 292.223 267.255 291.546 267.308 291.52L266.951 290.979L266.393 291.31C266.74 291.9 267.273 292.302 267.854 292.538C268.437 292.777 269.072 292.866 269.712 292.867C270.55 292.866 271.399 292.711 272.162 292.479C272.926 292.242 273.596 291.936 274.096 291.578C275.032 290.9 275.617 289.834 275.982 288.58C276.346 287.322 276.494 285.847 276.495 284.254C276.494 280.625 275.719 276.376 274.716 272.851C274.214 271.088 273.654 269.509 273.095 268.275C272.816 267.657 272.535 267.124 272.253 266.689C271.966 266.254 271.694 265.914 271.337 265.674C270.468 265.1 269.563 264.888 268.752 264.89C266.777 264.904 265.36 266.038 265.305 266.07L265.703 266.583L265.938 265.977C265.207 265.695 264.51 265.566 263.861 265.568C262.122 265.568 260.8 266.472 259.915 267.412L260.386 267.859Z" fill="#1A282B"/>
<path fill-rule="evenodd" clip-rule="evenodd" d="M267.944 278.063C268.182 279.733 268.318 281.417 268.318 283.094C268.318 284.408 268.235 285.719 268.049 287.016C267.999 287.372 268.245 287.701 268.6 287.751C268.954 287.802 269.284 287.555 269.335 287.201C269.529 285.836 269.616 284.464 269.616 283.094C269.616 281.345 269.475 279.601 269.229 277.881C269.179 277.525 268.85 277.279 268.496 277.329C268.14 277.38 267.893 277.708 267.944 278.064" fill="#1A282B"/>
<path fill-rule="evenodd" clip-rule="evenodd" d="M284.827 219.667C284.747 221.061 283.552 222.126 282.157 222.045C280.763 221.965 279.697 220.769 279.777 219.374C279.858 217.98 281.054 216.915 282.448 216.996C283.844 217.076 284.908 218.272 284.827 219.667Z" fill="#FFFFFE"/>
<path fill-rule="evenodd" clip-rule="evenodd" d="M284.827 219.667L284.179 219.629C284.123 220.629 283.293 221.4 282.307 221.4L282.195 221.397C281.194 221.34 280.421 220.509 280.423 219.521L280.425 219.412C280.482 218.412 281.313 217.641 282.3 217.641L282.41 217.644H282.412C283.41 217.701 284.183 218.531 284.183 219.517L284.179 219.629L284.827 219.667L285.476 219.704L285.481 219.517C285.481 217.844 284.176 216.445 282.486 216.348H282.487L282.3 216.343C280.626 216.343 279.228 217.648 279.129 219.337L279.124 219.521C279.124 221.196 280.429 222.596 282.12 222.693L282.307 222.698C283.979 222.698 285.377 221.393 285.476 219.703L284.827 219.667Z" fill="#1A282B"/>
<path fill-rule="evenodd" clip-rule="evenodd" d="M283.006 258.868C282.927 260.262 281.731 261.328 280.337 261.247C278.941 261.167 277.876 259.972 277.957 258.577C278.037 257.181 279.233 256.117 280.628 256.197C282.022 256.278 283.088 257.474 283.006 258.868Z" fill="#FFFFFE"/>
<path fill-rule="evenodd" clip-rule="evenodd" d="M283.006 258.868L282.358 258.832C282.302 259.83 281.472 260.603 280.485 260.603L280.373 260.599C279.373 260.543 278.601 259.712 278.601 258.724L278.605 258.615C278.662 257.614 279.493 256.841 280.481 256.841L280.59 256.845C281.59 256.902 282.362 257.732 282.361 258.719L282.358 258.83L283.006 258.868L283.654 258.906L283.659 258.719C283.659 257.046 282.356 255.648 280.665 255.548L280.481 255.543C278.807 255.544 277.408 256.848 277.308 258.539L277.302 258.724C277.302 260.397 278.607 261.797 280.299 261.894L280.485 261.901C282.158 261.9 283.557 260.596 283.654 258.906L283.006 258.868Z" fill="#1A282B"/>
<path fill-rule="evenodd" clip-rule="evenodd" d="M306.19 171.643L304.333 145.486L277.266 151.752L275.825 172.761C274.116 172.974 272.492 173.213 270.906 173.458L277.525 189.328L290.465 191.025L311.164 171.953C309.484 171.827 307.819 171.719 306.19 171.643Z" fill="#FFFFFE"/>
<mask id="mask1_301_1022" style="mask-type:luminance" maskUnits="userSpaceOnUse" x="270" y="145" width="42" height="47">
<path fill-rule="evenodd" clip-rule="evenodd" d="M306.19 171.643L304.333 145.486L277.266 151.752L275.825 172.761C274.116 172.974 272.492 173.213 270.906 173.458L277.525 189.328L290.465 191.025L311.164 171.953C309.484 171.827 307.819 171.719 306.19 171.643Z" fill="white"/>
</mask>
<g mask="url(#mask1_301_1022)">
<path fill-rule="evenodd" clip-rule="evenodd" d="M276.865 161.018C277.042 179.626 298.792 173.919 304.808 155.33L304.333 145.486L277.266 151.752L276.865 161.018Z" fill="#393939"/>
</g>
<path fill-rule="evenodd" clip-rule="evenodd" d="M306.19 171.643L306.836 171.596L304.981 145.441C304.967 145.251 304.872 145.077 304.719 144.964C304.565 144.851 304.372 144.811 304.186 144.854L277.121 151.12C276.842 151.184 276.638 151.422 276.618 151.708L275.177 172.716L275.825 172.761L275.744 172.117C274.028 172.331 272.396 172.57 270.807 172.816C270.609 172.846 270.437 172.967 270.339 173.14C270.242 173.315 270.23 173.524 270.307 173.707L276.925 189.577C277.014 189.791 277.209 189.941 277.439 189.97L290.381 191.669C290.572 191.693 290.764 191.632 290.905 191.502L311.603 172.431C311.793 172.256 311.861 171.983 311.777 171.739C311.691 171.495 311.47 171.325 311.212 171.305C309.528 171.179 307.858 171.071 306.22 170.994L306.19 171.643L306.836 171.596L306.19 171.643L306.159 172.291C307.781 172.367 309.439 172.475 311.114 172.6L311.164 171.953L310.724 171.475L290.248 190.342L277.979 188.732L271.505 173.209L270.905 173.458L271.005 174.099C272.588 173.854 274.206 173.616 275.905 173.405C276.214 173.366 276.451 173.116 276.473 172.805L277.882 152.276L303.74 146.29L305.542 171.688C305.565 172.017 305.83 172.275 306.159 172.291L306.19 171.643Z" fill="#1A282B"/>
<path fill-rule="evenodd" clip-rule="evenodd" d="M260.277 123.405C260.277 123.405 250.391 106.291 248.927 97.2623C244.402 69.3878 264.529 78.7945 264.529 78.7945C264.529 78.7945 278.761 66.0562 296.482 68.2855C314.205 70.5148 318.873 78.057 330.802 82.6908C330.802 82.6908 321.847 128.152 310.383 138.341C298.92 148.531 260.277 123.405 260.277 123.405Z" fill="#393939"/>
<path fill-rule="evenodd" clip-rule="evenodd" d="M260.277 123.405L260.839 123.08C260.839 123.08 260.687 122.817 260.416 122.334C259.464 120.643 257.06 116.281 254.738 111.368C252.417 106.461 250.182 100.977 249.567 97.1584C249.115 94.3708 248.913 91.9689 248.913 89.9071C248.914 84.8396 250.127 81.8689 251.764 80.1642C253.398 78.4594 255.539 77.9193 257.654 77.9154C259.367 77.9154 261.03 78.2816 262.257 78.6516C262.871 78.8372 263.375 79.0216 263.724 79.1592C263.898 79.2281 264.033 79.2852 264.124 79.3241L264.254 79.3826C264.49 79.4929 264.768 79.4514 264.963 79.2774L265.091 79.1657C266.415 78.0193 277.828 68.6581 292.278 68.6724C293.627 68.6724 295.003 68.7542 296.401 68.9295C305.181 70.037 310.664 72.435 315.496 75.1525C320.325 77.8674 324.515 80.9432 330.567 83.2958L330.802 82.6908L330.164 82.5648C330.164 82.5674 330.025 83.2699 329.759 84.5293C328.827 88.9372 326.334 100.113 322.83 111.279C321.078 116.862 319.072 122.443 316.89 127.164C314.712 131.883 312.338 135.743 309.952 137.856C308.187 139.429 305.655 140.124 302.584 140.124C295.014 140.137 284.458 135.839 275.874 131.509C271.578 129.347 267.764 127.183 265.025 125.56C263.657 124.749 262.557 124.073 261.8 123.601C261.042 123.128 260.633 122.862 260.632 122.861L260.277 123.405L260.839 123.08L260.277 123.405L259.924 123.949C259.936 123.958 266.629 128.31 275.291 132.669C283.963 137.023 294.56 141.409 302.584 141.422C305.837 141.422 308.716 140.69 310.815 138.827C313.818 136.146 316.531 131.338 319.006 125.603C326.403 108.414 331.431 82.8375 331.438 82.8167C331.499 82.5064 331.33 82.2 331.037 82.0857C325.16 79.8045 321.052 76.7923 316.134 74.0203C311.218 71.2509 305.506 68.7633 296.562 67.6415C295.11 67.4584 293.679 67.374 292.278 67.374C276.259 67.3935 264.153 78.2751 264.097 78.3101L264.529 78.7944L264.805 78.2062C264.759 78.1907 261.441 76.6248 257.654 76.6171C255.332 76.6145 252.777 77.2312 250.826 79.2657C248.878 81.2989 247.613 84.6487 247.614 89.9071C247.614 92.0533 247.825 94.5227 248.286 97.3675C249.049 102.029 251.904 108.568 254.568 114.006C257.234 119.433 259.711 123.722 259.715 123.729L259.924 123.949L260.277 123.405Z" fill="#1A282B"/>
<path fill-rule="evenodd" clip-rule="evenodd" d="M266.085 82.6869L266.079 82.6726C266.003 82.4805 265.265 80.5225 265.267 77.7648C265.28 74.0307 266.566 68.8684 272.714 64.3515C273.004 64.1398 273.067 63.7334 272.854 63.4439C272.643 63.1544 272.236 63.092 271.948 63.3037C265.456 68.044 263.955 73.7308 263.968 77.7648C263.97 80.9523 264.864 83.1296 264.885 83.1816C265.021 83.5127 265.4 83.6711 265.732 83.5347C266.064 83.3984 266.222 83.018 266.085 82.6869Z" fill="#1A282B"/>
<path fill-rule="evenodd" clip-rule="evenodd" d="M285.2 77.0222C288.092 75.7446 290.585 75.2434 292.896 75.2434C296.901 75.2408 300.422 76.7677 304.429 78.6049C308.429 80.4369 312.894 82.5584 318.723 83.5737L318.946 82.2948C313.31 81.312 308.982 79.2632 304.969 77.4247C300.961 75.5914 297.247 73.9477 292.896 73.9451C290.394 73.9438 287.702 74.4956 284.675 75.8342L285.2 77.0222Z" fill="#BBBAB6"/>
<path fill-rule="evenodd" clip-rule="evenodd" d="M275.236 83.327C276.339 81.8741 277.796 80.6497 279.362 79.6422L278.658 78.5503C277.001 79.6188 275.427 80.9315 274.202 82.5415L275.236 83.327Z" fill="#BBBAB6"/>
<path fill-rule="evenodd" clip-rule="evenodd" d="M288.749 87.644L288.671 87.5635L288.748 87.6453L288.749 87.644L288.671 87.5635L288.748 87.6453C288.802 87.5973 290.744 85.8042 294.59 85.8042C297.171 85.8055 300.643 86.6092 305.034 89.3708C311.372 93.3555 316.586 93.9307 316.652 93.9385L316.792 92.6479L316.747 92.6414C316.226 92.5752 311.453 91.8754 305.726 88.2711C301.173 85.4056 297.447 84.5046 294.59 84.5059C290.184 84.5059 287.919 86.6378 287.849 86.7079L288.749 87.644Z" fill="#BBBAB6"/>
<path fill-rule="evenodd" clip-rule="evenodd" d="M305.802 99.067C289.331 99.4916 272.331 92.0624 272.331 92.0624C256.988 101.316 259.266 116.366 259.266 116.366C262.773 152.33 267.513 161.905 284.316 161.905C301.012 161.905 314.777 143.78 315.87 117.832C309.514 118.133 305.802 99.067 305.802 99.067Z" fill="#FFFFFE"/>
<path fill-rule="evenodd" clip-rule="evenodd" d="M305.802 99.0671L305.785 98.4179C305.333 98.4296 304.88 98.4361 304.428 98.4361C296.508 98.4373 288.533 96.6962 282.55 94.95C279.559 94.0775 277.064 93.205 275.32 92.5519C274.447 92.2247 273.763 91.952 273.298 91.7625C272.832 91.5729 272.592 91.4677 272.591 91.4665C272.399 91.3834 272.177 91.3976 271.996 91.5054C265.967 95.1395 262.571 99.6877 260.708 103.892C258.844 108.097 258.497 111.949 258.497 114.25C258.497 115.617 258.62 116.438 258.624 116.464L259.266 116.366L258.619 116.43C260.381 134.434 262.425 145.864 266.233 152.931C268.139 156.461 270.521 158.903 273.511 160.425C276.5 161.948 280.056 162.553 284.316 162.554C292.91 162.556 300.72 157.879 306.469 149.981C312.225 142.079 315.966 130.941 316.518 117.86C316.526 117.676 316.457 117.501 316.327 117.373C316.198 117.243 316.022 117.175 315.839 117.184L315.721 117.187C315.104 117.186 314.502 116.96 313.88 116.507C312.795 115.716 311.729 114.218 310.805 112.41C309.414 109.702 308.313 106.321 307.571 103.631C307.199 102.284 306.916 101.109 306.725 100.273C306.63 99.8552 306.557 99.5202 306.51 99.2917C306.462 99.0632 306.439 98.9437 306.439 98.9437C306.378 98.6321 306.101 98.4101 305.785 98.4179L305.802 99.0671L305.164 99.1917C305.168 99.2099 306.085 103.922 307.801 108.672C308.662 111.05 309.719 113.435 310.995 115.274C311.635 116.194 312.331 116.979 313.113 117.553C313.89 118.126 314.772 118.487 315.721 118.485L315.9 118.481L315.87 117.832L315.221 117.805C314.681 130.67 310.994 141.569 305.42 149.216C299.839 156.867 292.419 161.253 284.316 161.256C280.174 161.256 276.836 160.664 274.101 159.268C272.048 158.22 270.319 156.721 268.809 154.62C264.271 148.329 261.87 136.508 259.912 116.304L259.907 116.27L259.892 116.147C259.86 115.885 259.795 115.217 259.795 114.25C259.795 112.079 260.125 108.406 261.896 104.418C263.668 100.429 266.865 96.1185 272.666 92.6181L272.331 92.0624L272.071 92.657C272.113 92.6687 288.217 99.7266 304.428 99.7344C304.891 99.7344 305.355 99.7279 305.818 99.7162L305.802 99.0671L305.164 99.1917L305.802 99.0671Z" fill="#1A282B"/>
<path fill-rule="evenodd" clip-rule="evenodd" d="M314.46 116.366C315.386 115.172 316.559 114.459 317.834 114.459C320.824 114.459 323.035 118.385 321.974 123.215C320.935 127.939 319.551 131.973 316.561 131.973C315.156 131.973 314.158 131.108 313.494 129.689" fill="#FFFFFE"/>
<path fill-rule="evenodd" clip-rule="evenodd" d="M314.973 116.765C315.821 115.676 316.813 115.107 317.834 115.108C318.824 115.11 319.725 115.633 320.434 116.63C321.137 117.625 321.596 119.083 321.595 120.796C321.595 121.517 321.514 122.282 321.339 123.075C320.828 125.416 320.224 127.565 319.425 129.06C319.029 129.81 318.587 130.387 318.117 130.761C317.644 131.134 317.161 131.32 316.561 131.324C315.992 131.32 315.552 131.16 315.147 130.85C314.745 130.539 314.382 130.058 314.081 129.414C313.929 129.089 313.544 128.949 313.219 129.101C312.893 129.253 312.754 129.64 312.906 129.964C313.27 130.739 313.738 131.4 314.353 131.877C314.963 132.353 315.725 132.624 316.561 132.622C317.457 132.624 318.267 132.306 318.927 131.775C319.92 130.977 320.62 129.754 321.198 128.301C321.771 126.844 322.214 125.142 322.608 123.354C322.802 122.471 322.893 121.613 322.893 120.796C322.892 118.854 322.382 117.144 321.496 115.883C320.618 114.625 319.315 113.807 317.834 113.81C316.304 113.81 314.95 114.669 313.948 115.969C313.727 116.252 313.779 116.66 314.062 116.881C314.346 117.1 314.754 117.048 314.973 116.765Z" fill="#1A282B"/>
<path fill-rule="evenodd" clip-rule="evenodd" d="M281.208 134.402L281.34 134.304L281.205 134.399L281.208 134.402L281.34 134.304L281.205 134.399C281.229 134.424 281.614 135.02 281.607 135.716C281.605 136.074 281.521 136.461 281.239 136.892C280.955 137.322 280.455 137.801 279.582 138.268C277.802 139.227 276.217 139.69 275.036 139.688C274.39 139.686 273.874 139.555 273.478 139.321C273.082 139.086 272.786 138.754 272.574 138.254C272.536 138.188 272.471 137.793 272.478 137.265C272.473 134.902 273.33 129.678 274.192 125.12C274.621 122.835 275.052 120.703 275.376 119.144C275.699 117.584 275.913 116.6 275.913 116.597C275.99 116.247 275.768 115.902 275.417 115.825C275.067 115.748 274.721 115.97 274.645 116.321C274.643 116.325 273.78 120.289 272.915 124.88C272.052 129.481 271.183 134.662 271.179 137.265C271.185 137.874 271.211 138.333 271.375 138.753C271.678 139.485 272.179 140.068 272.819 140.442C273.459 140.817 274.216 140.986 275.036 140.986C276.543 140.982 278.289 140.433 280.197 139.414C281.211 138.87 281.894 138.255 282.321 137.609C282.75 136.964 282.908 136.295 282.905 135.716C282.896 134.502 282.292 133.693 282.257 133.636C282.045 133.346 281.639 133.283 281.35 133.494C281.06 133.706 280.996 134.112 281.208 134.402Z" fill="#1A282B"/>
<path fill-rule="evenodd" clip-rule="evenodd" d="M274.919 119.003C273.588 118.332 269.866 116.665 265.258 116.661C262.378 116.66 259.146 117.323 255.999 119.306C255.798 119.432 255.681 119.66 255.698 119.898L256.204 127.532C256.219 127.753 256.344 127.952 256.539 128.058C256.63 128.11 259.657 129.737 266.434 129.736C269.493 129.736 271.65 129.406 273.097 129.04C273.445 128.953 273.656 128.6 273.567 128.252C273.48 127.904 273.127 127.693 272.779 127.782C271.45 128.118 269.399 128.437 266.434 128.437C263.149 128.437 260.808 128.045 259.301 127.66C258.548 127.466 258.001 127.275 257.651 127.135C257.474 127.066 257.347 127.009 257.266 126.97L257.181 126.929L257.164 126.919L257.159 126.93L257.164 126.921V126.919L257.159 126.93L257.164 126.921L256.852 127.489L257.5 127.447L256.992 119.812L256.344 119.855L256.691 120.404C259.609 118.57 262.573 117.961 265.258 117.959C269.548 117.957 273.108 119.54 274.333 120.162C274.653 120.324 275.043 120.195 275.206 119.876C275.367 119.555 275.24 119.164 274.919 119.003Z" fill="#1A282B"/>
<path fill-rule="evenodd" clip-rule="evenodd" d="M281.522 119.859L280.9 120.047L283.315 128.006L283.42 128.21C283.531 128.354 283.912 128.738 285.08 129.089C286.25 129.438 288.224 129.764 291.609 129.765C298.397 129.767 300.744 128.14 300.873 128.045C301.046 127.919 301.146 127.715 301.14 127.502L300.944 119.869C300.939 119.645 300.82 119.441 300.628 119.327C300.573 119.301 296.172 116.678 290.396 116.672C287.525 116.67 284.306 117.334 281.176 119.31C280.929 119.466 280.816 119.768 280.9 120.047L281.522 119.859L281.868 120.408C284.769 118.579 287.719 117.971 290.396 117.97C293.084 117.97 295.49 118.59 297.217 119.214C298.08 119.525 298.774 119.837 299.249 120.068C299.485 120.184 299.668 120.28 299.789 120.346L299.925 120.421L299.964 120.443L300.296 119.885L299.647 119.902L299.842 127.536L300.491 127.519L300.11 126.995L300.107 126.996C299.967 127.088 297.784 128.466 291.609 128.467C288.309 128.467 286.447 128.144 285.452 127.845C284.955 127.696 284.676 127.554 284.537 127.469L284.423 127.388L284.406 127.408L284.425 127.389L284.423 127.388L284.406 127.408L284.425 127.389L284.09 127.701L284.454 127.425L284.425 127.389L284.09 127.701L284.454 127.425L283.937 127.818L284.558 127.628L282.143 119.671L281.522 119.859L281.868 120.408L281.522 119.859Z" fill="#1A282B"/>
<path fill-rule="evenodd" clip-rule="evenodd" d="M275.16 120.508H281.522C281.881 120.508 282.172 120.217 282.172 119.859C282.172 119.501 281.881 119.21 281.522 119.21H275.16C274.802 119.21 274.511 119.501 274.511 119.859C274.511 120.217 274.802 120.508 275.16 120.508Z" fill="#1A282B"/>
<path fill-rule="evenodd" clip-rule="evenodd" d="M276.309 146.673C276.353 146.687 278.454 147.379 281.411 147.38C283.165 147.379 285.224 147.135 287.325 146.343C291.887 144.617 294.176 141.19 294.218 141.134C294.417 140.837 294.338 140.433 294.04 140.234C293.742 140.034 293.339 140.115 293.139 140.412L293.122 140.438C292.904 140.753 290.761 143.667 286.866 145.129C284.947 145.852 283.044 146.082 281.411 146.082C280.034 146.082 278.85 145.918 278.015 145.756C277.597 145.676 277.267 145.595 277.045 145.535L276.794 145.464L276.717 145.441C276.377 145.328 276.009 145.513 275.896 145.853C275.785 146.194 275.969 146.561 276.309 146.673Z" fill="#1A282B"/>
<path fill-rule="evenodd" clip-rule="evenodd" d="M287.335 112.926C289.724 111.942 291.69 111.605 293.27 111.605C295.167 111.605 296.517 112.088 297.396 112.558C297.836 112.793 298.156 113.026 298.361 113.196L298.584 113.393L298.641 113.45L298.777 113.324L298.639 113.448L298.641 113.45L298.777 113.324L298.639 113.448C298.877 113.715 299.288 113.738 299.555 113.501C299.823 113.262 299.846 112.852 299.608 112.584C299.54 112.5 297.523 110.304 293.27 110.307C291.503 110.307 289.364 110.685 286.84 111.726C286.509 111.862 286.351 112.241 286.487 112.574C286.625 112.905 287.004 113.063 287.335 112.926Z" fill="#1A282B"/>
<path fill-rule="evenodd" clip-rule="evenodd" d="M265.339 114.574C266.411 114.06 267.561 113.808 268.705 113.808C270.445 113.808 272.17 114.391 273.579 115.522C273.859 115.746 274.267 115.702 274.492 115.422C274.716 115.143 274.672 114.734 274.392 114.509C272.748 113.19 270.734 112.51 268.705 112.51C267.37 112.51 266.026 112.804 264.777 113.403C264.454 113.559 264.318 113.947 264.473 114.27C264.628 114.593 265.016 114.73 265.339 114.574Z" fill="#1A282B"/>
<path fill-rule="evenodd" clip-rule="evenodd" d="M255.198 103.572C255.502 105.112 255.886 106.683 256.537 108.174L257.726 107.656C257.135 106.299 256.766 104.821 256.473 103.322L255.198 103.572Z" fill="#BBBAB6"/>
<path fill-rule="evenodd" clip-rule="evenodd" d="M265.972 85.6692C264.593 85.2992 263.335 85.1174 262.188 85.1174C259.518 85.107 257.439 86.1405 256.129 87.9335C254.815 89.7214 254.239 92.1753 254.237 95.0369C254.237 95.625 254.262 96.2314 254.31 96.8546L255.604 96.7533C255.559 96.1625 255.536 95.5887 255.536 95.0369C255.533 92.3454 256.093 90.1641 257.174 88.7048C258.258 87.2519 259.831 86.4274 262.188 86.4157C263.197 86.4157 264.345 86.5767 265.634 86.9234L265.972 85.6692Z" fill="#BBBAB6"/>
<path fill-rule="evenodd" clip-rule="evenodd" d="M274.484 171.547L284.485 189.541L308.493 170.592L315.87 171.63L300.338 199.094C299.738 200.135 298.392 200.469 297.376 199.829L284.097 191.449L273.741 197.779C272.418 198.588 270.704 197.746 270.534 196.206L267.963 172.77L274.484 171.547Z" fill="#6EBD92"/>
<mask id="mask2_301_1022" style="mask-type:luminance" maskUnits="userSpaceOnUse" x="267" y="170" width="49" height="31">
<path fill-rule="evenodd" clip-rule="evenodd" d="M274.484 171.547L284.485 189.541L308.493 170.592L315.87 171.63L300.338 199.094C299.738 200.135 298.392 200.469 297.376 199.829L284.097 191.449L273.741 197.779C272.418 198.588 270.704 197.746 270.534 196.206L267.963 172.77L274.484 171.547Z" fill="white"/>
</mask>
<g mask="url(#mask2_301_1022)">
<path fill-rule="evenodd" clip-rule="evenodd" d="M298.501 200.155C298.117 200.155 297.726 200.05 297.376 199.829L284.097 191.449L273.741 197.779C273.391 197.994 273.011 198.093 272.641 198.093C271.617 198.093 270.659 197.337 270.534 196.206L267.963 172.77L273.761 171.683L284.485 189.541L308.494 170.592L315.87 171.63L315.531 172.228L300.338 199.094C299.945 199.776 299.232 200.155 298.501 200.155Z" fill="white"/>
</g>
<path fill-rule="evenodd" clip-rule="evenodd" d="M274.484 171.547L273.917 171.862L283.918 189.856C284.01 190.022 284.171 190.139 284.358 190.177C284.544 190.215 284.738 190.168 284.888 190.05L308.678 171.274L314.836 172.14L299.773 198.775L299.776 198.771C299.503 199.243 299.01 199.504 298.501 199.506C298.234 199.504 297.967 199.433 297.722 199.28L284.444 190.901C284.235 190.769 283.968 190.768 283.758 190.896L273.402 197.226C273.153 197.378 272.897 197.443 272.642 197.444C271.93 197.44 271.264 196.922 271.18 196.135L268.674 173.297L274.603 172.186L274.484 171.547L273.917 171.862L274.484 171.547L274.364 170.909L267.844 172.131C267.51 172.193 267.281 172.504 267.318 172.84L269.889 196.277C270.054 197.754 271.304 198.745 272.642 198.742C273.126 198.742 273.627 198.611 274.08 198.333L284.092 192.214L297.03 200.377C297.486 200.665 297.999 200.804 298.501 200.804C299.454 200.804 300.387 200.308 300.9 199.419L300.903 199.413L316.435 171.949C316.54 171.762 316.547 171.535 316.452 171.343C316.357 171.149 316.173 171.017 315.96 170.987L308.584 169.95C308.407 169.925 308.231 169.972 308.091 170.083L284.681 188.558L275.051 171.231C274.916 170.988 274.637 170.857 274.364 170.909L274.484 171.547Z" fill="#1A282B"/>
<path fill-rule="evenodd" clip-rule="evenodd" d="M190.902 298.445H125.624C124.212 298.445 123.066 297.299 123.066 295.887V292.297C123.066 290.884 124.212 289.74 125.624 289.74H190.902V298.445Z" fill="#1A282B"/>
<path fill-rule="evenodd" clip-rule="evenodd" d="M190.902 298.445V297.795H125.624C124.57 297.793 123.718 296.94 123.716 295.887V292.297C123.718 291.244 124.57 290.391 125.624 290.39H190.253V298.445H190.902V297.795V298.445H191.551V289.74C191.551 289.569 191.482 289.401 191.361 289.281C191.241 289.16 191.073 289.091 190.902 289.091H125.624C123.853 289.091 122.417 290.526 122.417 292.297V295.887C122.417 297.658 123.853 299.092 125.624 299.094H190.902C191.073 299.094 191.241 299.024 191.361 298.903C191.482 298.782 191.551 298.615 191.551 298.445H190.902Z" fill="#1A282B"/>
<path fill-rule="evenodd" clip-rule="evenodd" d="M247.078 298.445H190.902V289.74L247.195 293.452C248.13 293.513 248.857 294.289 248.857 295.226V296.666C248.857 297.647 248.061 298.445 247.078 298.445Z" fill="#2C2C2C"/>
<path fill-rule="evenodd" clip-rule="evenodd" d="M247.078 298.445V297.795H191.551V290.434L247.152 294.1H247.153C247.747 294.138 248.208 294.631 248.208 295.226V296.666C248.206 297.289 247.701 297.794 247.078 297.795V299.094C248.419 299.092 249.506 298.007 249.506 296.666V295.226C249.506 293.947 248.514 292.888 247.238 292.805L190.945 289.093C190.764 289.08 190.59 289.142 190.458 289.266C190.327 289.39 190.253 289.559 190.253 289.74V298.445C190.253 298.615 190.323 298.782 190.444 298.903C190.564 299.024 190.732 299.094 190.902 299.094H247.078V298.445Z" fill="#1A282B"/>
<path fill-rule="evenodd" clip-rule="evenodd" d="M300.535 121.749L314.668 116.982L314.46 116.366L313.951 115.964C312.275 118.079 312.275 118.079 312.275 118.079C312.052 118.359 312.1 118.768 312.38 118.99C312.662 119.214 313.07 119.166 313.293 118.885C313.293 118.885 313.293 118.885 314.969 116.77C315.147 116.544 315.156 116.229 314.991 115.994C314.825 115.757 314.525 115.66 314.253 115.752L300.12 120.519C299.78 120.634 299.598 121.002 299.712 121.342C299.826 121.682 300.195 121.864 300.535 121.749Z" fill="#1A282B"/>
<path fill-rule="evenodd" clip-rule="evenodd" d="M43.9521 242.07C43.9521 242.07 39.487 203.881 0 219.268C0 219.268 33.5964 219.019 39.2793 247.792L44.5039 247.233L43.9521 242.07Z" fill="#6EBD92"/>
<path fill-rule="evenodd" clip-rule="evenodd" d="M39.2793 247.792C33.6938 219.508 1.13607 219.268 0.0285639 219.268C0.0103869 219.268 0 219.268 0 219.268C6.62294 216.687 12.2578 215.614 17.054 215.614C40.8568 215.614 43.9521 242.07 43.9521 242.07L44.5039 247.233L39.2793 247.792Z" fill="#951B22"/>
<path fill-rule="evenodd" clip-rule="evenodd" d="M44.4896 241.427C44.4896 241.427 41.0737 200.705 33.6379 169.059C33.6379 169.059 56.3593 193.094 51.1658 238.35L44.4896 241.427Z" fill="#6EBD92"/>
<path fill-rule="evenodd" clip-rule="evenodd" d="M44.4896 241.427C44.4896 241.427 41.0737 200.705 33.6379 169.059C33.6379 169.059 49.6454 185.995 51.7176 218.197C48.7548 224.311 46.4151 231.833 45.2661 241.069L44.4896 241.427Z" fill="#951B22"/>
<path fill-rule="evenodd" clip-rule="evenodd" d="M42.2864 268.382C42.2864 268.382 35.7362 212.293 13.938 193.033C13.938 193.033 52.9239 202.729 47.1475 262.3L42.2864 268.382Z" fill="#D22630"/>
<path fill-rule="evenodd" clip-rule="evenodd" d="M49.1378 266.032C49.1378 266.032 58.6873 210.375 81.4891 192.313C81.4891 192.313 42.0384 199.903 44.6092 259.698L49.1378 266.032Z" fill="#D22630"/>
<path fill-rule="evenodd" clip-rule="evenodd" d="M69.1455 247.825H23.0537V255.832H24.5884V284.094C24.5884 292.019 31.0127 298.445 38.9379 298.445H53.2614C61.1866 298.445 67.6109 292.019 67.6109 284.094V255.832H69.1455V247.825Z" fill="#FFFFFE"/>
<path fill-rule="evenodd" clip-rule="evenodd" d="M69.1455 247.825V247.176H22.4045V256.482H23.9392V284.094C23.9392 292.379 30.6543 299.092 38.9379 299.094H53.2614C61.5449 299.092 68.26 292.379 68.26 284.094V256.482H69.7947V247.176H69.1455V247.825H68.4963V255.183H66.9617V284.094C66.9617 287.88 65.4296 291.301 62.9497 293.782C60.4673 296.262 57.0461 297.794 53.2614 297.795H38.9379C35.1531 297.794 31.732 296.262 29.2495 293.782C26.7696 291.301 25.2376 287.88 25.2363 284.094V255.183H23.7029V248.475H69.1455V247.825H68.4963H69.1455Z" fill="#1A282B"/>
<path fill-rule="evenodd" clip-rule="evenodd" d="M54.8596 256.104C56.9071 256.104 58.9534 256.104 60.9996 256.104V254.805C58.9534 254.805 56.9071 254.805 54.8596 254.805V256.104Z" fill="#1A282B"/>
<path fill-rule="evenodd" clip-rule="evenodd" d="M30.8347 256.104C36.763 256.104 42.69 256.104 48.6184 256.104V254.805C42.69 254.805 36.763 254.805 30.8347 254.805V256.104Z" fill="#1A282B"/>
<path fill-rule="evenodd" clip-rule="evenodd" d="M225.168 263.182L213.354 166.969C212.979 163.912 210.198 161.435 207.142 161.435H193.583L209.235 268.715H220.314C223.37 268.715 225.543 266.237 225.168 263.182Z" fill="#C9C9C9"/>
<path fill-rule="evenodd" clip-rule="evenodd" d="M225.168 263.182L225.812 263.103L213.998 166.889C213.567 163.493 210.55 160.801 207.142 160.786H193.583C193.395 160.786 193.214 160.869 193.091 161.011C192.969 161.153 192.913 161.343 192.94 161.529L208.593 268.808C208.64 269.129 208.912 269.364 209.235 269.364H220.314C221.89 269.365 223.288 268.768 224.28 267.773C225.275 266.78 225.86 265.395 225.859 263.863C225.859 263.613 225.843 263.359 225.812 263.103L225.168 263.182L224.524 263.26C224.549 263.465 224.561 263.667 224.561 263.863C224.559 265.066 224.11 266.106 223.362 266.855C222.613 267.603 221.564 268.064 220.314 268.066H209.797L194.334 162.084H207.142C209.845 162.069 212.391 164.333 212.709 167.048L224.524 263.26L225.168 263.182Z" fill="#1A282B"/>
<path fill-rule="evenodd" clip-rule="evenodd" d="M217.385 268.715H81.2384C78.1834 268.715 75.4023 266.237 75.0271 263.182L63.2133 166.969C62.8381 163.912 65.0102 161.435 68.0666 161.435H204.213C207.268 161.435 210.05 163.912 210.424 166.969L222.238 263.182C222.613 266.237 220.441 268.715 217.385 268.715Z" fill="#1A282B"/>
<mask id="mask3_301_1022" style="mask-type:luminance" maskUnits="userSpaceOnUse" x="63" y="161" width="160" height="108">
<path fill-rule="evenodd" clip-rule="evenodd" d="M217.385 268.715H81.2384C78.1834 268.715 75.4023 266.237 75.0271 263.182L63.2133 166.969C62.8381 163.912 65.0102 161.435 68.0666 161.435H204.213C207.268 161.435 210.05 163.912 210.424 166.969L222.238 263.182C222.613 266.237 220.441 268.715 217.385 268.715Z" fill="white"/>
</mask>
<g mask="url(#mask3_301_1022)">
<path fill-rule="evenodd" clip-rule="evenodd" d="M217.384 268.715H81.2384C78.1834 268.715 75.4023 266.237 75.027 263.182L63.2133 166.969C63.1847 166.736 63.1704 166.506 63.1704 166.282C63.1743 163.55 65.2439 161.435 68.0665 161.435H204.213C207.268 161.435 210.05 163.912 210.424 166.969L222.238 263.182C222.266 263.415 222.281 263.643 222.281 263.869C222.278 266.601 220.207 268.715 217.384 268.715Z" fill="#363636"/>
</g>
<path fill-rule="evenodd" clip-rule="evenodd" d="M217.385 268.715V268.066H81.2384C78.5352 268.081 75.9891 265.818 75.671 263.103L63.8573 166.889C63.8326 166.684 63.8196 166.483 63.8196 166.287C63.8222 165.085 64.2714 164.045 65.018 163.294C65.7684 162.546 66.8162 162.086 68.0665 162.084H204.213C206.916 162.069 209.462 164.333 209.78 167.048L221.594 263.26C221.62 263.465 221.631 263.667 221.631 263.863C221.63 265.066 221.181 266.106 220.433 266.855C219.683 267.603 218.635 268.064 217.385 268.066V269.364C218.959 269.365 220.359 268.768 221.351 267.773C222.346 266.78 222.931 265.395 222.93 263.863C222.93 263.613 222.914 263.359 222.883 263.103L211.069 166.889C210.638 163.493 207.62 160.801 204.213 160.786H68.0665C66.4916 160.785 65.092 161.382 64.1 162.376C63.1068 163.37 62.5212 164.756 62.5212 166.287C62.5212 166.538 62.5368 166.791 62.5693 167.048L74.3818 263.26C74.8141 266.658 77.8315 269.348 81.2384 269.364H217.385V268.715Z" fill="#1A282B"/>
<path fill-rule="evenodd" clip-rule="evenodd" d="M153.902 290.579L159.339 228.612C159.468 227.122 158.295 225.842 156.8 225.842H122.429C121.108 225.842 120.007 226.85 119.892 228.167L113.97 295.674C113.839 297.163 115.013 298.445 116.507 298.445H184.592C185.999 298.445 187.14 297.303 187.14 295.897C187.14 294.49 185.999 293.35 184.592 293.35H156.441C154.945 293.35 153.773 292.068 153.902 290.579Z" fill="#242424"/>
<path fill-rule="evenodd" clip-rule="evenodd" d="M153.902 290.579L154.549 290.636L159.985 228.668L159.997 228.385C159.997 226.637 158.58 225.194 156.8 225.192H122.429C120.772 225.192 119.389 226.458 119.245 228.11L113.324 295.617L113.311 295.9C113.311 297.649 114.727 299.092 116.507 299.094H184.592C186.359 299.092 187.788 297.662 187.79 295.897C187.788 294.13 186.358 292.701 184.592 292.701H156.441C155.384 292.698 154.544 291.839 154.541 290.805L154.549 290.636L153.256 290.522L153.243 290.805C153.244 292.553 154.659 293.998 156.441 293.999H184.592C185.641 294 186.489 294.848 186.491 295.897C186.489 296.944 185.641 297.793 184.592 297.795H116.507C115.45 297.793 114.612 296.933 114.609 295.9L114.617 295.731L120.539 228.223C120.624 227.242 121.446 226.491 122.429 226.491H156.8C157.857 226.492 158.697 227.352 158.699 228.385L158.692 228.555L153.256 290.522L153.902 290.579Z" fill="#1A282B"/>
<path fill-rule="evenodd" clip-rule="evenodd" d="M187.141 295.897C187.141 294.49 185.999 293.35 184.592 293.35H156.441C154.945 293.35 153.773 292.068 153.902 290.579L159.339 228.612C159.469 227.126 158.3 225.848 156.81 225.843C155.494 225.848 154.397 226.854 154.283 228.167L148.361 295.674C148.23 297.163 149.404 298.445 150.898 298.445H184.592C185.999 298.445 187.141 297.303 187.141 295.897Z" fill="#C9C9C9"/>
<path fill-rule="evenodd" clip-rule="evenodd" d="M187.14 295.897H187.79C187.788 294.13 186.358 292.701 184.592 292.701H156.441C155.384 292.698 154.544 291.839 154.541 290.805L154.549 290.636L159.985 228.668L159.997 228.385C159.997 226.641 158.587 225.2 156.812 225.194H156.807C155.155 225.2 153.78 226.463 153.636 228.11L147.713 295.617L147.701 295.9C147.701 297.649 149.118 299.092 150.898 299.094H184.592C186.359 299.092 187.788 297.662 187.79 295.897H186.491C186.489 296.944 185.641 297.793 184.592 297.795H150.898C149.842 297.793 149.001 296.933 149 295.9L149.008 295.731L154.929 228.223C155.015 227.245 155.832 226.495 156.812 226.492H156.808C157.861 226.493 158.7 227.354 158.699 228.385L158.692 228.555L153.256 290.522L153.243 290.805C153.244 292.553 154.659 293.998 156.441 293.999H184.592C185.641 294 186.489 294.848 186.491 295.897H187.14Z" fill="#1A282B"/>
</svg>
